FrancoisOne-Regular.ufo
<glyph name="dollar" format="1">
  <advance width="1040"/>
  <unicode hex="0024"/>
  <outline>
    <contour>
      <point x="458" y="-96" type="line"/>
      <point x="602" y="-96" type="line"/>
      <point x="602" y="32" type="line"/>
      <point x="825" y="67"/>
      <point x="988" y="237"/>
      <point x="988" y="481" type="curve"/>
      <point x="983" y="574"/>
      <point x="938" y="703"/>
      <point x="719" y="831" type="curve" smooth="yes"/>
      <point x="602" y="899" type="line"/>
      <point x="602" y="1245" type="line"/>
      <point x="652" y="1213"/>
      <point x="677" y="1149"/>
      <point x="709" y="1079" type="curve"/>
      <point x="943" y="1194" type="line"/>
      <point x="884" y="1373"/>
      <point x="765" y="1478"/>
      <point x="602" y="1501" type="curve"/>
      <point x="602" y="1632" type="line"/>
      <point x="458" y="1632" type="line"/>
      <point x="458" y="1501" type="line"/>
      <point x="242" y="1469"/>
      <point x="85" y="1305"/>
      <point x="85" y="1076" type="curve" smooth="yes"/>
      <point x="85" y="924"/>
      <point x="178" y="824"/>
      <point x="311" y="744" type="curve"/>
      <point x="458" y="657" type="line"/>
      <point x="458" y="302" type="line"/>
      <point x="371" y="347"/>
      <point x="317" y="455"/>
      <point x="272" y="529" type="curve"/>
      <point x="48" y="410" type="line"/>
      <point x="112" y="210"/>
      <point x="250" y="53"/>
      <point x="458" y="29" type="curve"/>
    </contour>
    <contour>
      <point x="377" y="1107" type="curve" smooth="yes"/>
      <point x="377" y="1172"/>
      <point x="402" y="1231"/>
      <point x="458" y="1255" type="curve"/>
      <point x="458" y="984" type="line"/>
      <point x="417" y="1011"/>
      <point x="377" y="1052"/>
    </contour>
    <contour>
      <point x="682" y="434" type="curve" smooth="yes"/>
      <point x="682" y="375"/>
      <point x="649" y="321"/>
      <point x="602" y="296" type="curve"/>
      <point x="602" y="571" type="line"/>
      <point x="647" y="538"/>
      <point x="682" y="494"/>
    </contour>
  </outline>
</glyph>
<glyph name="quotesingle" format="1">
  <advance width="451"/>
  <unicode hex="0027"/>
  <outline>
    <contour>
      <point x="82" y="1536" type="line"/>
      <point x="130" y="948" type="line"/>
      <point x="322" y="960" type="line"/>
      <point x="370" y="1536" type="line"/>
    </contour>
  </outline>
</glyph>
<glyph name="parenright" format="1">
  <advance width="683"/>
  <unicode hex="0029"/>
  <outline>
    <contour>
      <point x="56" y="-76" type="line"/>
      <point x="437" y="-44"/>
      <point x="621" y="349"/>
      <point x="621" y="745" type="curve" smooth="yes"/>
      <point x="621" y="1149"/>
      <point x="429" y="1551"/>
      <point x="56" y="1563" type="curve"/>
      <point x="56" y="1380" type="line"/>
      <point x="240" y="1345"/>
      <point x="333" y="1044"/>
      <point x="333" y="745" type="curve" smooth="yes"/>
      <point x="333" y="436"/>
      <point x="240" y="129"/>
      <point x="56" y="113" type="curve"/>
    </contour>
  </outline>
</glyph>
<glyph name="comma" format="1">
  <advance width="488"/>
  <unicode hex="002C"/>
  <outline>
    <contour>
      <point x="99" y="288" type="line"/>
      <point x="99" y="0" type="line"/>
      <point x="243" y="0" type="line"/>
      <point x="242" y="-18"/>
      <point x="238" y="-34"/>
      <point x="231" y="-48" type="curve" smooth="yes"/>
      <point x="219" y="-72"/>
      <point x="195" y="-96"/>
      <point x="147" y="-96" type="curve"/>
      <point x="147" y="-288" type="line"/>
      <point x="192" y="-285"/>
      <point x="232" y="-273"/>
      <point x="267" y="-252" type="curve" smooth="yes"/>
      <point x="327" y="-217"/>
      <point x="387" y="-144"/>
      <point x="387" y="0" type="curve" smooth="yes"/>
      <point x="387" y="288" type="line"/>
    </contour>
  </outline>
</glyph>
<glyph name="one" format="1">
  <advance width="929"/>
  <unicode hex="0031"/>
  <outline>
    <contour>
      <point x="157" y="0" type="line"/>
      <point x="829" y="0" type="line"/>
      <point x="841" y="251" type="line"/>
      <point x="642" y="251" type="line"/>
      <point x="642" y="1536" type="line"/>
      <point x="493" y="1536" type="line"/>
      <point x="144" y="1331" type="line"/>
      <point x="144" y="1116" type="line"/>
      <point x="354" y="1162" type="line"/>
      <point x="354" y="251" type="line"/>
      <point x="157" y="251" type="line"/>
    </contour>
  </outline>
</glyph>
<glyph name="four" format="1">
  <advance width="1068"/>
  <unicode hex="0034"/>
  <outline>
    <contour>
      <point x="564" y="-12" type="line"/>
      <point x="852" y="12" type="line"/>
      <point x="852" y="384" type="line"/>
      <point x="1020" y="384" type="line"/>
      <point x="1044" y="614" type="line"/>
      <point x="852" y="614" type="line"/>
      <point x="852" y="1536" type="line"/>
      <point x="551" y="1536" type="line"/>
      <point x="50" y="614" type="line"/>
      <point x="50" y="384" type="line"/>
      <point x="564" y="384" type="line"/>
    </contour>
    <contour>
      <point x="288" y="614" type="line"/>
      <point x="564" y="1153" type="line"/>
      <point x="564" y="614" type="line"/>
    </contour>
  </outline>
</glyph>
<glyph name="A" format="1">
  <advance width="1131"/>
  <unicode hex="0041"/>
  <outline>
    <contour>
      <point x="724" y="329" type="line"/>
      <point x="781" y="0" type="line"/>
      <point x="1108" y="12" type="line"/>
      <point x="776" y="1536" type="line"/>
      <point x="349" y="1518" type="line"/>
      <point x="25" y="0" type="line"/>
      <point x="292" y="0" type="line"/>
      <point x="359" y="329" type="line"/>
    </contour>
    <contour>
      <point x="413" y="575" type="line"/>
      <point x="529" y="1310" type="line"/>
      <point x="670" y="575" type="line"/>
    </contour>
  </outline>
</glyph>
<glyph name="I" format="1">
  <advance width="588"/>
  <unicode hex="0049"/>
  <outline>
    <contour>
      <point x="144" y="-12" type="line"/>
      <point x="444" y="12" type="line"/>
      <point x="444" y="1536" type="line"/>
      <point x="144" y="1512" type="line"/>
    </contour>
  </outline>
</glyph>
<glyph name="R" format="1">
  <advance width="1158"/>
  <unicode hex="0052"/>
  <outline>
    <contour>
      <point x="443" y="12" type="line"/>
      <point x="443" y="673" type="line"/>
      <point x="560" y="673" type="line"/>
      <point x="834" y="-27" type="line"/>
      <point x="1129" y="53" type="line"/>
      <point x="990" y="384" type="line" smooth="yes"/>
      <point x="921" y="549"/>
      <point x="852" y="717"/>
      <point x="852" y="719" type="curve"/>
      <point x="983" y="794"/>
      <point x="1072" y="907"/>
      <point x="1072" y="1108" type="curve" smooth="yes"/>
      <point x="1072" y="1408"/>
      <point x="845" y="1536"/>
      <point x="508" y="1536" type="curve"/>
      <point x="144" y="1524" type="line"/>
      <point x="144" y="-12" type="line"/>
    </contour>
    <contour>
      <point x="443" y="1296" type="line"/>
      <point x="583" y="1296" type="line" smooth="yes"/>
      <point x="690" y="1296"/>
      <point x="772" y="1249"/>
      <point x="772" y="1105" type="curve" smooth="yes"/>
      <point x="772" y="925"/>
      <point x="665" y="895"/>
      <point x="545" y="895" type="curve" smooth="yes"/>
      <point x="443" y="895" type="line"/>
    </contour>
  </outline>
</glyph>
<glyph name="backslash" format="1">
  <advance width="628"/>
  <unicode hex="005C"/>
  <outline>
    <contour>
      <point x="363" y="1536" type="line"/>
      <point x="63" y="1536" type="line"/>
      <point x="264" y="0" type="line"/>
      <point x="564" y="0" type="line"/>
    </contour>
  </outline>
</glyph>
<glyph name="grave" format="1">
  <advance width="613"/>
  <unicode hex="0060"/>
  <outline>
    <contour>
      <point x="535" y="1342" type="line"/>
      <point x="238" y="1789" type="line"/>
      <point x="11" y="1587" type="line"/>
      <point x="421" y="1241" type="line"/>
    </contour>
  </outline>
</glyph>
<glyph name="g" format="1">
  <advance width="1089"/>
  <unicode hex="0067"/>
  <outline>
    <contour>
      <point x="33" y="-123" type="curve" smooth="yes"/>
      <point x="33" y="-261"/>
      <point x="207" y="-358"/>
      <point x="519" y="-358" type="curve" smooth="yes"/>
      <point x="789" y="-358"/>
      <point x="1042" y="-282"/>
      <point x="1042" y="-20" type="curve" smooth="yes"/>
      <point x="1042" y="139"/>
      <point x="966" y="240"/>
      <point x="758" y="264" type="curve" smooth="yes"/>
      <point x="431" y="302" type="line" smooth="yes"/>
      <point x="391" y="307"/>
      <point x="359" y="335"/>
      <point x="359" y="374" type="curve" smooth="yes"/>
      <point x="359" y="420"/>
      <point x="405" y="458"/>
      <point x="434" y="469" type="curve"/>
      <point x="462" y="469"/>
      <point x="506" y="465"/>
      <point x="558" y="465" type="curve" smooth="yes"/>
      <point x="867" y="465"/>
      <point x="957" y="655"/>
      <point x="957" y="820" type="curve" smooth="yes"/>
      <point x="957" y="875"/>
      <point x="935" y="936"/>
      <point x="913" y="991" type="curve"/>
      <point x="918" y="994"/>
      <point x="924" y="996"/>
      <point x="931" y="999" type="curve" smooth="yes"/>
      <point x="954" y="1007"/>
      <point x="988" y="1020"/>
      <point x="1095" y="1020" type="curve"/>
      <point x="1095" y="1211" type="line"/>
      <point x="951" y="1211"/>
      <point x="859" y="1120"/>
      <point x="816" y="1081" type="curve"/>
      <point x="760" y="1118"/>
      <point x="671" y="1167"/>
      <point x="523" y="1167" type="curve" smooth="yes"/>
      <point x="319" y="1167"/>
      <point x="96" y="1045"/>
      <point x="96" y="815" type="curve" smooth="yes"/>
      <point x="96" y="650.413"/>
      <point x="184.921" y="568.047"/>
      <point x="280" y="511" type="curve"/>
      <point x="170.916" y="457.788"/>
      <point x="79" y="378"/>
      <point x="79" y="256" type="curve" smooth="yes"/>
      <point x="79" y="167"/>
      <point x="148.004" y="127.468"/>
      <point x="235" y="103" type="curve"/>
      <point x="132.066" y="62.368"/>
      <point x="33" y="-0.939158"/>
    </contour>
    <contour>
      <point x="295" y="-40" type="curve" smooth="yes"/>
      <point x="295" y="28"/>
      <point x="342" y="66"/>
      <point x="386" y="80" type="curve"/>
      <point x="554" y="66" type="line" smooth="yes"/>
      <point x="701" y="54"/>
      <point x="762" y="49"/>
      <point x="762" y="-21" type="curve" smooth="yes"/>
      <point x="762" y="-101"/>
      <point x="687" y="-149"/>
      <point x="550" y="-149" type="curve" smooth="yes"/>
      <point x="363" y="-149"/>
      <point x="295" y="-107"/>
    </contour>
    <contour>
      <point x="390" y="826" type="curve" smooth="yes"/>
      <point x="390" y="902"/>
      <point x="435" y="993"/>
      <point x="527" y="993" type="curve" smooth="yes"/>
      <point x="596" y="993"/>
      <point x="658" y="939"/>
      <point x="658" y="820" type="curve" smooth="yes"/>
      <point x="658" y="696"/>
      <point x="608" y="628"/>
      <point x="529" y="628" type="curve" smooth="yes"/>
      <point x="414" y="628"/>
      <point x="390" y="738"/>
    </contour>
  </outline>
</glyph>
<glyph name="q" format="1">
  <advance width="1014"/>
  <unicode hex="0071"/>
  <outline>
    <contour>
      <point x="890.125" y="1152" type="line"/>
      <point x="613.125" y="1128" type="line"/>
      <point x="602.125" y="1041" type="line"/>
      <point x="558" y="1114"/>
      <point x="485" y="1167"/>
      <point x="388" y="1167" type="curve" smooth="yes"/>
      <point x="89" y="1167"/>
      <point x="74.1247" y="811"/>
      <point x="74.1247" y="576" type="curve" smooth="yes"/>
      <point x="74.1247" y="358"/>
      <point x="81.1247" y="-27"/>
      <point x="380.125" y="-27" type="curve" smooth="yes"/>
      <point x="495.543" y="-27"/>
      <point x="561.311" y="33.6974"/>
      <point x="602.125" y="99" type="curve"/>
      <point x="602.125" y="-358" type="line"/>
      <point x="890.125" y="-322" type="line"/>
    </contour>
    <contour>
      <point x="499.125" y="960" type="curve" smooth="yes"/>
      <point x="548.418" y="960"/>
      <point x="580.568" y="920.419"/>
      <point x="602.125" y="880" type="curve"/>
      <point x="602.125" y="285" type="line"/>
      <point x="580.342" y="238.712"/>
      <point x="545.084" y="193"/>
      <point x="477.125" y="193" type="curve" smooth="yes"/>
      <point x="410.125" y="193"/>
      <point x="362.125" y="258"/>
      <point x="362.125" y="576" type="curve" smooth="yes"/>
      <point x="362.125" y="864"/>
      <point x="410.125" y="960"/>
    </contour>
  </outline>
</glyph>
<glyph name="bar" format="1">
  <advance width="582"/>
  <unicode hex="007C"/>
  <outline>
    <contour>
      <point x="141" y="-96" type="line"/>
      <point x="441" y="-96" type="line"/>
      <point x="441" y="1632" type="line"/>
      <point x="141" y="1632" type="line"/>
    </contour>
  </outline>
</glyph>
<glyph name="braceright" format="1">
  <advance width="673"/>
  <unicode hex="007D"/>
  <outline>
    <contour>
      <point x="532" y="551" type="curve" smooth="yes"/>
      <point x="532" y="615"/>
      <point x="532" y="693"/>
      <point x="628" y="693" type="curve"/>
      <point x="628" y="882" type="line"/>
      <point x="532" y="882"/>
      <point x="532" y="960"/>
      <point x="532" y="1024" type="curve" smooth="yes"/>
      <point x="532" y="1416"/>
      <point x="436" y="1632"/>
      <point x="52" y="1632" type="curve"/>
      <point x="52" y="1470" type="line"/>
      <point x="244" y="1470"/>
      <point x="244" y="1326"/>
      <point x="244" y="1024" type="curve" smooth="yes"/>
      <point x="244" y="943"/>
      <point x="244" y="854"/>
      <point x="436" y="787" type="curve"/>
      <point x="244" y="723"/>
      <point x="244" y="631"/>
      <point x="244" y="551" type="curve" smooth="yes"/>
      <point x="244" y="228"/>
      <point x="244" y="75"/>
      <point x="52" y="75" type="curve"/>
      <point x="52" y="-87" type="line"/>
      <point x="436" y="-87"/>
      <point x="532" y="140"/>
    </contour>
  </outline>
</glyph>
<glyph name="cent" format="1">
  <advance width="983"/>
  <unicode hex="00A2"/>
  <outline>
    <contour>
      <point x="439" y="-192" type="line"/>
      <point x="578" y="-192" type="line"/>
      <point x="578" y="-25" type="line"/>
      <point x="816" y="-9"/>
      <point x="889" y="161"/>
      <point x="921" y="405" type="curve"/>
      <point x="681" y="432" type="line"/>
      <point x="679" y="396"/>
      <point x="674" y="363"/>
      <point x="667" y="334" type="curve" smooth="yes"/>
      <point x="654" y="284"/>
      <point x="629" y="229"/>
      <point x="578" y="218" type="curve"/>
      <point x="578" y="918" type="line"/>
      <point x="634" y="878"/>
      <point x="647" y="792"/>
      <point x="655" y="742" type="curve"/>
      <point x="928" y="754" type="line"/>
      <point x="920" y="971"/>
      <point x="783" y="1129"/>
      <point x="578" y="1161" type="curve"/>
      <point x="578" y="1344" type="line"/>
      <point x="439" y="1344" type="line"/>
      <point x="439" y="1162" type="line"/>
      <point x="171" y="1125"/>
      <point x="52" y="842"/>
      <point x="52" y="566" type="curve" smooth="yes"/>
      <point x="52" y="295"/>
      <point x="179" y="37"/>
      <point x="439" y="-16" type="curve"/>
    </contour>
    <contour>
      <point x="341" y="576" type="curve" smooth="yes"/>
      <point x="341" y="656"/>
      <point x="340" y="857"/>
      <point x="439" y="920" type="curve"/>
      <point x="439" y="252" type="line"/>
      <point x="340" y="327"/>
      <point x="341" y="502"/>
    </contour>
  </outline>
</glyph>
<glyph name="sterling" format="1">
  <advance width="914"/>
  <unicode hex="00A3"/>
  <outline>
    <contour>
      <point x="843" y="10" type="line"/>
      <point x="843" y="231" type="line"/>
      <point x="755" y="287"/>
      <point x="668" y="322"/>
      <point x="576" y="322" type="curve" smooth="yes"/>
      <point x="528" y="322"/>
      <point x="481" y="311"/>
      <point x="435" y="288" type="curve"/>
      <point x="524" y="424"/>
      <point x="554" y="535"/>
      <point x="554" y="632" type="curve" smooth="yes"/>
      <point x="554" y="840"/>
      <point x="404" y="989"/>
      <point x="404" y="1179" type="curve" smooth="yes"/>
      <point x="404" y="1287"/>
      <point x="445" y="1331"/>
      <point x="496" y="1331" type="curve" smooth="yes"/>
      <point x="567" y="1331"/>
      <point x="619" y="1272"/>
      <point x="619" y="1145" type="curve"/>
      <point x="851" y="1233" type="line"/>
      <point x="819" y="1465"/>
      <point x="653" y="1564"/>
      <point x="482" y="1564" type="curve" smooth="yes"/>
      <point x="302" y="1564"/>
      <point x="110" y="1426"/>
      <point x="110" y="1199" type="curve" smooth="yes"/>
      <point x="110" y="1063"/>
      <point x="246" y="798"/>
      <point x="246" y="591" type="curve" smooth="yes"/>
      <point x="246" y="409"/>
      <point x="211" y="263"/>
      <point x="97" y="226" type="curve"/>
      <point x="97" y="36" type="line"/>
      <point x="105" y="27"/>
      <point x="115" y="19"/>
      <point x="126" y="12" type="curve" smooth="yes"/>
      <point x="145" y="0"/>
      <point x="172" y="-12"/>
      <point x="211" y="-12" type="curve" smooth="yes"/>
      <point x="301" y="-12"/>
      <point x="406" y="97"/>
      <point x="563" y="97" type="curve" smooth="yes"/>
      <point x="634" y="97"/>
      <point x="713" y="84"/>
      <point x="801" y="-2" type="curve"/>
    </contour>
    <contour>
      <point x="105" y="636" type="line"/>
      <point x="701" y="636" type="line"/>
      <point x="701" y="827" type="line"/>
      <point x="105" y="827" type="line"/>
    </contour>
  </outline>
</glyph>
<glyph name="yen" format="1">
  <advance width="1096"/>
  <unicode hex="00A5"/>
  <outline>
    <contour>
      <point x="404" y="0" type="line"/>
      <point x="707" y="0" type="line"/>
      <point x="707" y="643" type="line"/>
      <point x="1062" y="1536" type="line"/>
      <point x="803" y="1536" type="line"/>
      <point x="575" y="896" type="line"/>
      <point x="364" y="1536" type="line"/>
      <point x="34" y="1536" type="line"/>
      <point x="404" y="608" type="line"/>
    </contour>
  </outline>
</glyph>
<glyph name="copyright" format="1">
  <advance width="1397"/>
  <unicode hex="00A9"/>
  <outline>
    <contour>
      <point x="827" y="598" type="line"/>
      <point x="822" y="512"/>
      <point x="803" y="391"/>
      <point x="720" y="391" type="curve" smooth="yes"/>
      <point x="605" y="391"/>
      <point x="589" y="540"/>
      <point x="589" y="689" type="curve" smooth="yes"/>
      <point x="589" y="805"/>
      <point x="605" y="944"/>
      <point x="700" y="944" type="curve" smooth="yes"/>
      <point x="799" y="944"/>
      <point x="803" y="772"/>
      <point x="803" y="755" type="curve"/>
      <point x="994" y="763" type="line"/>
      <point x="994" y="930"/>
      <point x="889" y="1106"/>
      <point x="712" y="1106" type="curve" smooth="yes"/>
      <point x="475" y="1106"/>
      <point x="391" y="877"/>
      <point x="391" y="689" type="curve" smooth="yes"/>
      <point x="391" y="485"/>
      <point x="476" y="242"/>
      <point x="707" y="242" type="curve" smooth="yes"/>
      <point x="903" y="242"/>
      <point x="995" y="403"/>
      <point x="995" y="582" type="curve"/>
    </contour>
    <contour>
      <point x="187" y="673" type="curve" smooth="yes"/>
      <point x="187" y="972"/>
      <point x="417" y="1213"/>
      <point x="699" y="1213" type="curve" smooth="yes"/>
      <point x="979" y="1213"/>
      <point x="1210" y="972"/>
      <point x="1210" y="673" type="curve" smooth="yes"/>
      <point x="1210" y="374"/>
      <point x="979" y="133"/>
      <point x="699" y="133" type="curve" smooth="yes"/>
      <point x="417" y="133"/>
      <point x="187" y="374"/>
    </contour>
    <contour>
      <point x="54" y="673" type="curve" smooth="yes"/>
      <point x="54" y="301"/>
      <point x="344" y="0"/>
      <point x="699" y="0" type="curve" smooth="yes"/>
      <point x="1053" y="0"/>
      <point x="1343" y="301"/>
      <point x="1343" y="673" type="curve" smooth="yes"/>
      <point x="1343" y="1045"/>
      <point x="1053" y="1346"/>
      <point x="699" y="1346" type="curve" smooth="yes"/>
      <point x="344" y="1346"/>
      <point x="54" y="1045"/>
    </contour>
  </outline>
</glyph>
<glyph name="twosuperior" format="1">
  <advance width="840"/>
  <unicode hex="00B2"/>
  <outline>
    <contour>
      <point x="326" y="1241" type="line"/>
      <point x="329" y="1266"/>
      <point x="334" y="1289"/>
      <point x="341" y="1309" type="curve" smooth="yes"/>
      <point x="353" y="1344"/>
      <point x="373" y="1378"/>
      <point x="408" y="1378" type="curve" smooth="yes"/>
      <point x="448" y="1378"/>
      <point x="469" y="1337"/>
      <point x="469" y="1286" type="curve" smooth="yes"/>
      <point x="469" y="1105"/>
      <point x="236" y="918"/>
      <point x="87" y="749" type="curve"/>
      <point x="87" y="576" type="line"/>
      <point x="691" y="576" type="line"/>
      <point x="691" y="652"/>
      <point x="707" y="692"/>
      <point x="707" y="768" type="curve"/>
      <point x="403" y="768" type="line"/>
      <point x="560" y="903"/>
      <point x="754" y="1099"/>
      <point x="754" y="1284" type="curve" smooth="yes"/>
      <point x="754" y="1487"/>
      <point x="607" y="1568"/>
      <point x="434" y="1568" type="curve" smooth="yes"/>
      <point x="247" y="1568"/>
      <point x="119" y="1453"/>
      <point x="87" y="1321" type="curve"/>
    </contour>
  </outline>
</glyph>
<glyph name="paragraph" format="1">
  <advance width="1152"/>
  <unicode hex="00B6"/>
  <outline>
    <contour>
      <point x="1095" y="1536" type="line"/>
      <point x="859" y="1536" type="line" smooth="yes"/>
      <point x="509" y="1536"/>
      <point x="47" y="1553"/>
      <point x="47" y="1145" type="curve" smooth="yes"/>
      <point x="47" y="941"/>
      <point x="169" y="847"/>
      <point x="335" y="801" type="curve"/>
      <point x="335" y="0" type="line"/>
      <point x="567" y="0" type="line"/>
      <point x="567" y="770" type="line"/>
      <point x="619" y="765"/>
      <point x="668" y="764"/>
      <point x="719" y="764" type="curve"/>
      <point x="719" y="0" type="line"/>
      <point x="951" y="0" type="line"/>
      <point x="951" y="1288" type="line"/>
      <point x="1095" y="1288" type="line"/>
    </contour>
  </outline>
</glyph>
<glyph name="ordmasculine" format="1">
  <advance width="951"/>
  <unicode hex="00BA"/>
  <outline>
    <contour>
      <point x="474" y="557" type="curve"/>
      <point x="379" y="560"/>
      <point x="331" y="667"/>
      <point x="331" y="771" type="curve" smooth="yes"/>
      <point x="331" y="879"/>
      <point x="379" y="984"/>
      <point x="475" y="984" type="curve" smooth="yes"/>
      <point x="571" y="984"/>
      <point x="619" y="876"/>
      <point x="619" y="769" type="curve" smooth="yes"/>
      <point x="619" y="662"/>
      <point x="571" y="557"/>
    </contour>
    <contour>
      <point x="476" y="363" type="curve" smooth="yes"/>
      <point x="731" y="363"/>
      <point x="868" y="531"/>
      <point x="868" y="767" type="curve" smooth="yes"/>
      <point x="868" y="998"/>
      <point x="731" y="1167"/>
      <point x="476" y="1167" type="curve" smooth="yes"/>
      <point x="215" y="1167"/>
      <point x="84" y="998"/>
      <point x="84" y="767" type="curve" smooth="yes"/>
      <point x="84" y="531"/>
      <point x="215" y="363"/>
    </contour>
  </outline>
</glyph>
<glyph name="onehalf" format="1">
  <advance width="1984"/>
  <unicode hex="00BD"/>
  <outline>
    <contour>
      <point x="674" y="0" type="line"/>
      <point x="962" y="0" type="line"/>
      <point x="1346" y="1536" type="line"/>
      <point x="1058" y="1536" type="line"/>
    </contour>
    <contour>
      <point x="78" y="576" type="line"/>
      <point x="672" y="576" type="line"/>
      <point x="684" y="768" type="line"/>
      <point x="497" y="768" type="line"/>
      <point x="497" y="1536" type="line"/>
      <point x="396" y="1536" type="line"/>
      <point x="65" y="1331" type="line"/>
      <point x="65" y="1190" type="line"/>
      <point x="91" y="1190" type="line" smooth="yes"/>
      <point x="118" y="1190"/>
      <point x="160" y="1194"/>
      <point x="195" y="1198" type="curve" smooth="yes"/>
      <point x="257" y="1206" type="line"/>
      <point x="257" y="768" type="line"/>
      <point x="78" y="768" type="line"/>
    </contour>
    <contour>
      <point x="1506" y="665" type="line"/>
      <point x="1509" y="690"/>
      <point x="1514" y="713"/>
      <point x="1521" y="733" type="curve" smooth="yes"/>
      <point x="1533" y="768"/>
      <point x="1553" y="802"/>
      <point x="1588" y="802" type="curve" smooth="yes"/>
      <point x="1628" y="802"/>
      <point x="1649" y="761"/>
      <point x="1649" y="710" type="curve" smooth="yes"/>
      <point x="1649" y="529"/>
      <point x="1416" y="342"/>
      <point x="1267" y="173" type="curve"/>
      <point x="1267" y="0" type="line"/>
      <point x="1871" y="0" type="line"/>
      <point x="1871" y="76"/>
      <point x="1887" y="116"/>
      <point x="1887" y="192" type="curve"/>
      <point x="1583" y="192" type="line"/>
      <point x="1740" y="327"/>
      <point x="1934" y="523"/>
      <point x="1934" y="708" type="curve" smooth="yes"/>
      <point x="1934" y="911"/>
      <point x="1787" y="992"/>
      <point x="1614" y="992" type="curve" smooth="yes"/>
      <point x="1427" y="992"/>
      <point x="1299" y="877"/>
      <point x="1267" y="745" type="curve"/>
    </contour>
  </outline>
</glyph>
<glyph name="multiply" format="1">
  <advance width="857"/>
  <unicode hex="00D7"/>
  <outline>
    <contour>
      <point x="243" y="905" type="line"/>
      <point x="74" y="736" type="line"/>
      <point x="259" y="552" type="line"/>
      <point x="71" y="364" type="line"/>
      <point x="240" y="196" type="line"/>
      <point x="427" y="384" type="line"/>
      <point x="617" y="193" type="line"/>
      <point x="786" y="362" type="line"/>
      <point x="595" y="552" type="line"/>
      <point x="783" y="739" type="line"/>
      <point x="615" y="908" type="line"/>
      <point x="427" y="720" type="line"/>
    </contour>
  </outline>
</glyph>
<glyph name="Thorn" format="1">
  <advance width="1082"/>
  <unicode hex="00DE"/>
  <outline>
    <contour>
      <point x="140" y="-92" type="line"/>
      <point x="440" y="-68" type="line"/>
      <point x="440" y="265" type="line"/>
      <point x="713" y="265"/>
      <point x="1048" y="304"/>
      <point x="1048" y="716" type="curve" smooth="yes"/>
      <point x="1048" y="1129"/>
      <point x="729" y="1163"/>
      <point x="442" y="1167" type="curve"/>
      <point x="442" y="1536" type="line"/>
      <point x="140" y="1536" type="line"/>
    </contour>
    <contour>
      <point x="442" y="488" type="line"/>
      <point x="442" y="937" type="line"/>
      <point x="485" y="937" type="line" smooth="yes"/>
      <point x="653" y="937"/>
      <point x="749" y="902"/>
      <point x="749" y="718" type="curve" smooth="yes"/>
      <point x="749" y="530"/>
      <point x="632" y="488"/>
      <point x="493" y="488" type="curve" smooth="yes"/>
    </contour>
  </outline>
</glyph>
<glyph name="germandbls" format="1">
  <advance width="1170"/>
  <unicode hex="00DF"/>
  <outline>
    <contour>
      <point x="414" y="0" type="line"/>
      <point x="414" y="1111" type="line" smooth="yes"/>
      <point x="414" y="1273"/>
      <point x="486" y="1340"/>
      <point x="560" y="1345" type="curve" smooth="yes"/>
      <point x="698" y="1354"/>
      <point x="751" y="1256"/>
      <point x="751" y="1160" type="curve" smooth="yes"/>
      <point x="751" y="1072"/>
      <point x="691" y="956"/>
      <point x="551" y="910" type="curve"/>
      <point x="551" y="743" type="line"/>
      <point x="732" y="743"/>
      <point x="836" y="590"/>
      <point x="836" y="462" type="curve" smooth="yes"/>
      <point x="836" y="344"/>
      <point x="748" y="211"/>
      <point x="540" y="211" type="curve"/>
      <point x="540" y="2" type="line"/>
      <point x="838" y="14"/>
      <point x="1127" y="109"/>
      <point x="1127" y="471" type="curve" smooth="yes"/>
      <point x="1127" y="713"/>
      <point x="983" y="814"/>
      <point x="813" y="870" type="curve"/>
      <point x="957" y="966"/>
      <point x="1000" y="1075"/>
      <point x="1000" y="1192" type="curve" smooth="yes"/>
      <point x="1000" y="1388"/>
      <point x="858" y="1579"/>
      <point x="529" y="1567" type="curve" smooth="yes"/>
      <point x="300" y="1559"/>
      <point x="124" y="1420"/>
      <point x="124" y="1056" type="curve" smooth="yes"/>
      <point x="124" y="-25" type="line"/>
    </contour>
  </outline>
</glyph>
<glyph name="Hbar" format="1">
  <advance width="1179"/>
  <unicode hex="0126"/>
  <outline>
    <contour>
      <point x="26" y="1162" type="line"/>
      <point x="145" y="1162" type="line"/>
      <point x="145" y="-12" type="line"/>
      <point x="445" y="12" type="line"/>
      <point x="445" y="639" type="line"/>
      <point x="733" y="639" type="line"/>
      <point x="733" y="-12" type="line"/>
      <point x="1033" y="12" type="line"/>
      <point x="1033" y="1162" type="line"/>
      <point x="1139" y="1162" type="line"/>
      <point x="1139" y="1344" type="line"/>
      <point x="1033" y="1344" type="line"/>
      <point x="1033" y="1536" type="line"/>
      <point x="733" y="1512" type="line"/>
      <point x="733" y="1344" type="line"/>
      <point x="445" y="1344" type="line"/>
      <point x="445" y="1536" type="line"/>
      <point x="145" y="1512" type="line"/>
      <point x="145" y="1344" type="line"/>
      <point x="26" y="1344" type="line"/>
    </contour>
    <contour>
      <point x="445" y="913" type="line"/>
      <point x="445" y="1162" type="line"/>
      <point x="733" y="1162" type="line"/>
      <point x="733" y="913" type="line"/>
    </contour>
  </outline>
</glyph>
<glyph name="hbar" format="1">
  <advance width="1104"/>
  <unicode hex="0127"/>
  <outline>
    <contour>
      <point x="700" y="-12" type="line"/>
      <point x="988" y="12" type="line"/>
      <point x="988" y="876" type="line" smooth="yes"/>
      <point x="988" y="1055"/>
      <point x="885" y="1167"/>
      <point x="742" y="1167" type="curve" smooth="yes"/>
      <point x="643" y="1167"/>
      <point x="532" y="1117"/>
      <point x="412" y="1005" type="curve"/>
      <point x="412" y="1536" type="line"/>
      <point x="124" y="1500" type="line"/>
      <point x="124" y="-12" type="line"/>
      <point x="412" y="12" type="line"/>
      <point x="412" y="843" type="line"/>
      <point x="492" y="891"/>
      <point x="547" y="922"/>
      <point x="600" y="922" type="curve" smooth="yes"/>
      <point x="657" y="922"/>
      <point x="700" y="878"/>
      <point x="700" y="773" type="curve" smooth="yes"/>
    </contour>
    <contour>
      <point x="-32" y="1248" type="line"/>
      <point x="639" y="1248" type="line"/>
      <point x="639" y="1440" type="line"/>
      <point x="-32" y="1440" type="line"/>
    </contour>
  </outline>
</glyph>
<glyph name="dotlessi" format="1">
  <advance width="536"/>
  <unicode hex="0131"/>
  <outline>
    <contour>
      <point x="124" y="-12" type="line"/>
      <point x="412" y="12" type="line"/>
      <point x="412" y="1152" type="line"/>
      <point x="124" y="1128" type="line"/>
    </contour>
  </outline>
</glyph>
<glyph name="Eng" format="1">
  <advance width="1245"/>
  <unicode hex="014A"/>
  <outline>
    <contour>
      <point x="628" y="-287" type="line"/>
      <point x="702" y="-307"/>
      <point x="766" y="-317"/>
      <point x="820" y="-317" type="curve" smooth="yes"/>
      <point x="1033" y="-317"/>
      <point x="1104" y="-149"/>
      <point x="1104" y="95" type="curve" smooth="yes"/>
      <point x="1104" y="1536" type="line"/>
      <point x="850" y="1512" type="line"/>
      <point x="850" y="722" type="line"/>
      <point x="454" y="1536" type="line"/>
      <point x="141" y="1524" type="line"/>
      <point x="141" y="0" type="line"/>
      <point x="409" y="12" type="line"/>
      <point x="409" y="998" type="line"/>
      <point x="850" y="143" type="line"/>
      <point x="850" y="120" type="line" smooth="yes"/>
      <point x="850" y="12"/>
      <point x="850" y="-98"/>
      <point x="708" y="-98" type="curve" smooth="yes"/>
      <point x="685" y="-98"/>
      <point x="660" y="-95"/>
      <point x="628" y="-84" type="curve"/>
    </contour>
  </outline>
</glyph>
<glyph name="florin" format="1">
  <advance width="704"/>
  <unicode hex="0192"/>
  <outline>
    <contour>
      <point x="474" y="627" type="line"/>
      <point x="665" y="627" type="line"/>
      <point x="665" y="864" type="line"/>
      <point x="474" y="864" type="line"/>
      <point x="474" y="1173" type="line" smooth="yes"/>
      <point x="474" y="1257"/>
      <point x="484" y="1344"/>
      <point x="604" y="1344" type="curve" smooth="yes"/>
      <point x="667" y="1344" type="line"/>
      <point x="667" y="1516" type="line"/>
      <point x="655" y="1521"/>
      <point x="640" y="1526"/>
      <point x="622" y="1531" type="curve" smooth="yes"/>
      <point x="591" y="1538"/>
      <point x="543" y="1546"/>
      <point x="472" y="1546" type="curve" smooth="yes"/>
      <point x="194" y="1546"/>
      <point x="186" y="1360"/>
      <point x="186" y="1174" type="curve" smooth="yes"/>
      <point x="186" y="864" type="line"/>
      <point x="44" y="864" type="line"/>
      <point x="44" y="629" type="line"/>
      <point x="186" y="629" type="line"/>
      <point x="186" y="-21" type="line" smooth="yes"/>
      <point x="186" y="-105"/>
      <point x="176" y="-192"/>
      <point x="56" y="-192" type="curve" smooth="yes"/>
      <point x="-7" y="-192" type="line"/>
      <point x="-7" y="-364" type="line"/>
      <point x="5" y="-370"/>
      <point x="20" y="-375"/>
      <point x="38" y="-379" type="curve" smooth="yes"/>
      <point x="69" y="-387"/>
      <point x="116" y="-394"/>
      <point x="188" y="-394" type="curve" smooth="yes"/>
      <point x="466" y="-394"/>
      <point x="474" y="-208"/>
      <point x="474" y="-22" type="curve" smooth="yes"/>
    </contour>
  </outline>
</glyph>
<glyph name="ring" format="1">
  <advance width="789"/>
  <unicode hex="02DA"/>
  <outline>
    <contour>
      <point x="395" y="1407" type="line" smooth="yes"/>
      <point x="333" y="1407"/>
      <point x="271" y="1445"/>
      <point x="271" y="1520" type="curve" smooth="yes"/>
      <point x="271" y="1591"/>
      <point x="333" y="1631"/>
      <point x="395" y="1631" type="curve" smooth="yes"/>
      <point x="455" y="1631"/>
      <point x="518" y="1591"/>
      <point x="518" y="1520" type="curve" smooth="yes"/>
      <point x="518" y="1445"/>
      <point x="454" y="1407"/>
      <point x="394" y="1407" type="curve" smooth="yes"/>
    </contour>
    <contour>
      <point x="395" y="1248" type="curve" smooth="yes"/>
      <point x="550" y="1248"/>
      <point x="707" y="1337"/>
      <point x="707" y="1521" type="curve" smooth="yes"/>
      <point x="707" y="1702"/>
      <point x="550" y="1792"/>
      <point x="395" y="1792" type="curve" smooth="yes"/>
      <point x="239" y="1792"/>
      <point x="82" y="1702"/>
      <point x="82" y="1521" type="curve" smooth="yes"/>
      <point x="82" y="1337"/>
      <point x="239" y="1248"/>
    </contour>
  </outline>
</glyph>
<glyph name="gravecomb" format="1">
  <advance width="591"/>
  <unicode hex="0300"/>
  <outline>
    <contour>
      <point x="557.5" y="1342" type="line"/>
      <point x="260.5" y="1789" type="line"/>
      <point x="33.5" y="1587" type="line"/>
      <point x="443.5" y="1241" type="line"/>
    </contour>
  </outline>
</glyph>
<glyph name="acutecomb" format="1">
  <advance width="591"/>
  <unicode hex="0301"/>
  <outline>
    <contour>
      <point x="146.5" y="1245" type="line"/>
      <point x="557.5" y="1591" type="line"/>
      <point x="330.5" y="1793" type="line"/>
      <point x="33.5" y="1346" type="line"/>
    </contour>
  </outline>
</glyph>
<glyph name="caroncomb" format="1">
  <advance width="741"/>
  <unicode hex="030C"/>
  <outline>
    <contour>
      <point x="34.5" y="1728" type="line"/>
      <point x="274.5" y="1248" type="line"/>
      <point x="476.5" y="1248" type="line"/>
      <point x="706.5" y="1728" type="line"/>
      <point x="456.5" y="1728" type="line"/>
      <point x="360.5" y="1438" type="line"/>
      <point x="244.5" y="1728" type="line"/>
    </contour>
  </outline>
</glyph>
<glyph name="product" format="1">
  <advance width="1171"/>
  <unicode hex="220F"/>
  <outline>
    <contour>
      <point x="730" y="-12" type="line"/>
      <point x="1030" y="12" type="line"/>
      <point x="1030" y="1512" type="line"/>
      <point x="142" y="1512" type="line"/>
      <point x="142" y="-12" type="line"/>
      <point x="442" y="12" type="line"/>
      <point x="442" y="1238" type="line"/>
      <point x="730" y="1238" type="line"/>
    </contour>
  </outline>
</glyph>
<glyph name="approxequal" format="1">
  <advance width="828"/>
  <unicode hex="2248"/>
  <outline>
    <contour>
      <point x="105" y="768" type="line"/>
      <point x="124" y="788"/>
      <point x="144" y="806"/>
      <point x="165" y="823" type="curve"/>
      <point x="201" y="850"/>
      <point x="249" y="878"/>
      <point x="298" y="878" type="curve" smooth="yes"/>
      <point x="407" y="878"/>
      <point x="462" y="757"/>
      <point x="552" y="757" type="curve" smooth="yes"/>
      <point x="672" y="757"/>
      <point x="743" y="888"/>
      <point x="743" y="892" type="curve" smooth="yes"/>
      <point x="743" y="1074" type="line"/>
      <point x="732" y="1053"/>
      <point x="718" y="1035"/>
      <point x="701" y="1019" type="curve" smooth="yes"/>
      <point x="672" y="991"/>
      <point x="625" y="964"/>
      <point x="560" y="964" type="curve" smooth="yes"/>
      <point x="478" y="964"/>
      <point x="421" y="1074"/>
      <point x="319" y="1074" type="curve" smooth="yes"/>
      <point x="268" y="1074"/>
      <point x="216" y="1038"/>
      <point x="175" y="1003" type="curve" smooth="yes"/>
      <point x="151" y="982"/>
      <point x="128" y="958"/>
      <point x="106" y="932" type="curve"/>
    </contour>
    <contour>
      <point x="91" y="768" type="line"/>
      <point x="110" y="788"/>
      <point x="130" y="806"/>
      <point x="151" y="823" type="curve"/>
      <point x="187" y="850"/>
      <point x="235" y="878"/>
      <point x="284" y="878" type="curve" smooth="yes"/>
      <point x="393" y="878"/>
      <point x="448" y="757"/>
      <point x="538" y="757" type="curve" smooth="yes"/>
      <point x="658" y="757"/>
      <point x="729" y="888"/>
      <point x="729" y="892" type="curve" smooth="yes"/>
      <point x="729" y="1074" type="line"/>
      <point x="718" y="1053"/>
      <point x="704" y="1035"/>
      <point x="687" y="1019" type="curve" smooth="yes"/>
      <point x="658" y="991"/>
      <point x="611" y="964"/>
      <point x="546" y="964" type="curve" smooth="yes"/>
      <point x="464" y="964"/>
      <point x="407" y="1074"/>
      <point x="305" y="1074" type="curve" smooth="yes"/>
      <point x="254" y="1074"/>
      <point x="202" y="1038"/>
      <point x="161" y="1003" type="curve" smooth="yes"/>
      <point x="137" y="982"/>
      <point x="114" y="958"/>
      <point x="92" y="932" type="curve"/>
    </contour>
  </outline>
</glyph>
